<svg width="266" height="133" viewBox="0 0 266 133" fill="none" xmlns="http://www.w3.org/2000/svg">
<path d="M206.161 0C209.025 1.48605 212.271 1.34487 215.316 2.08789C246.227 9.65931 266.666 36.6831 265.584 68.7592C264.563 99.5801 241.689 125.489 210.977 130.795C208.88 131.159 206.53 130.616 204.656 132.095H140.229C140.302 121.975 140.507 111.862 140.369 101.75C140.326 98.7108 141.311 98.0343 144.139 98.079C162.656 98.1981 181.124 98.1534 199.616 98.1383C216.247 98.1383 230.044 86.5401 232.032 70.9809C234.25 53.676 224.381 38.9196 207.702 34.6249C204.711 33.8882 201.635 33.5337 198.559 33.5698C189.186 33.5698 179.819 33.6664 170.452 33.5698C160.619 33.451 150.769 34.0528 140.943 33.2206C139.825 23.3978 140.749 13.5305 140.435 3.6854C140.435 2.46684 140.302 1.24085 140.229 0.0148605L206.161 0Z" fill="#65B1CD"/>
<path d="M125.441 0C125.441 10.016 125.386 20.0617 125.61 30.0479C125.676 33.02 124.631 33.4658 122.014 33.4509C103.261 33.3543 84.5028 33.28 65.7296 33.4509C57.2848 33.5469 49.2166 36.9727 43.2676 42.9881C37.3193 49.0035 33.9683 57.1257 33.9393 65.5992C33.9103 74.0731 37.2051 82.2182 43.1117 88.2751C49.0189 94.3315 57.0637 97.813 65.5078 97.9678C84.2587 98.0494 103.017 98.0645 121.791 97.9158C124.945 97.9158 125.676 98.8595 125.61 101.868C125.411 110.518 125.447 119.181 125.61 127.875C125.664 130.504 125.151 131.508 122.22 131.486C102.728 131.344 83.2289 131.59 63.7154 131.352C32.2049 130.98 4.47142 104.841 0.850335 73.6487C-3.07473 39.722 20.1046 6.4346 56.1173 0.832187C56.8582 0.720733 57.6359 0.869336 58.0578 0.0891626L125.441 0Z" fill="#65B1CD"/>
</svg>
