<svg width="184" height="185" viewBox="0 0 184 185" fill="none" xmlns="http://www.w3.org/2000/svg">
<mask id="mask0_1392:18" style="mask-type:alpha" maskUnits="userSpaceOnUse" x="0" y="0" width="184" height="185">
<path d="M0 0H183.9V184.5H0V0Z" fill="white"/>
</mask>
<g mask="url(#mask0_1392:18)">
<path d="M82.5002 33.5L104.2 16.6L55.5002 27.4L82.5002 33.5ZM99.3002 37.3L107.5 20.6L89.1002 35L99.3002 37.3ZM112.3 40.2V22.9L104.7 38.5L112.3 40.2ZM127.8 43.6L117.6 22.9V41.4L127.8 43.6ZM69.0002 44L77.2002 37.6L54.3002 32.5L69.0002 44ZM161.5 51.2L122.4 20.6L134.4 45.1L161.5 51.2ZM58.6002 52.2L64.7002 47.4L50.9002 36.6L58.6002 52.2ZM88.5002 59.3L97.0002 42.1L83.8002 39.2L73.3002 47.4C73.3002 47.4 88.5002 59.3 88.5002 59.3ZM142 60.4L160.3 56.3L137.4 51.2C137.4 51.2 142 60.4 142 60.4ZM46.1002 61.9L54.3002 55.5L46.1002 38.9V61.9ZM117.6 65.9L136.6 61.7L130.7 49.8L117.6 46.9C117.6 46.7 117.6 65.9 117.6 65.9ZM101.5 69.5L112.3 67.1V45.6L102.3 43.3L92.8002 62.7C92.8002 62.7 101.5 69.5 101.5 69.5ZM147.7 72.2L161.5 61.4L144.3 65.2L147.7 72.2ZM87.9002 72.5L94.8002 71L90.4002 67.5L87.9002 72.5ZM70.5002 76.4L81.3002 74L86.1002 64.2L69.0002 50.8L61.0002 57.1L70.5002 76.4ZM112.3 77.9V72.4L106.8 73.6L112.3 77.9ZM46.1002 81.9L65.1002 77.7L56.6002 60.5L46.1002 68.7C46.1002 68.6 46.1002 81.9 46.1002 81.9ZM19.1002 83.1L40.8002 66.1V38.9L19.1002 83.1ZM75.3002 86.2L78.4002 80L72.9002 81.2L75.3002 86.2ZM154.6 86.2L164.8 65.5L150.1 77L154.6 86.2ZM22.4002 87.2L40.8002 83.1V72.9C40.8002 72.8 22.4002 87.2 22.4002 87.2ZM126.3 88.9L143.4 75.5L138.9 66.4L117.5 71.2V82.1C117.6 82.1 126.3 88.9 126.3 88.9ZM117.6 95.7L122 92.2L117.6 88.7V95.7ZM40.8002 96.1V88.4L23.6002 92.2L40.8002 96.1ZM67.5002 102.1L72.3002 92.3L67.5002 82.5L46.1002 87.2V97.3L67.5002 102.1ZM145.8 104.2L151.7 92.3L145.9 80.4L130.7 92.3L145.8 104.2ZM78.3002 104.5L75.3002 98.3L72.9002 103.3C72.8002 103.3 78.3002 104.5 78.3002 104.5ZM100.1 109.4L112.3 99.9V84.6L100.2 75.1L85.0002 78.5L78.2002 92.2L84.9002 105.9L100.1 109.4ZM40.8002 111.7V101.5L22.5002 97.4L40.8002 111.7ZM112.3 112.1V106.6L106.8 110.9L112.3 112.1ZM169.6 116.8V67.8L157.6 92.3L169.6 116.8ZM90.4002 117L94.8002 113.5L87.9002 112L90.4002 117ZM139 118.1L143.5 109L126.4 95.6L117.7 102.4V113.3C117.6 113.3 139 118.1 139 118.1ZM164.8 119.1L154.6 98.3L150.1 107.5L164.8 119.1ZM161.5 123.2L147.7 112.4L144.3 119.3L161.5 123.2ZM56.7002 124.2L65.2002 107L46.2002 102.7V115.9C46.1002 115.9 56.7002 124.2 56.7002 124.2ZM137.4 133.4L160.3 128.3L141.9 124.2C142 124.2 137.4 133.4 137.4 133.4ZM69.0002 133.8L86.1002 120.4L81.3002 110.6L70.5002 108.1L61.0002 127.5L69.0002 133.8ZM117.6 137.8L130.8 134.9L136.7 123L117.7 118.7L117.6 137.8ZM102.3 141.3L112.3 139.1V117.6L101.5 115.2L92.8002 122L102.3 141.3ZM83.8002 145.4L96.9002 142.5L88.5002 125.2L73.3002 137.1C73.2002 137.1 83.8002 145.4 83.8002 145.4ZM40.8002 145.6V118.4L19.1002 101.4L40.8002 145.6ZM46.1002 145.6L54.3002 129L46.1002 122.6V145.6ZM50.9002 147.9L64.7002 137.1L58.6002 132.3C58.6002 132.4 50.9002 147.9 50.9002 147.9ZM54.3002 152L77.2002 146.9L69.0002 140.5L54.3002 152ZM112.3 161.7V144.4L104.7 146.1C104.6 146.1 112.3 161.7 112.3 161.7ZM117.6 161.7L127.8 140.9L117.6 143.2V161.7ZM107.5 163.9L99.3002 147.3L89.1002 149.6L107.5 163.9ZM122.4 163.9L161.5 133.3L134.5 139.4L122.4 163.9ZM104.1 168L82.4002 151L55.4002 157L104.1 168ZM114.9 184.5C111.3 184.5 108 182.9 105.8 180.2C104.2 178.2 103.3 175.7 103.3 173.2L53.8002 162.1C53.0002 163.6 52.0002 164.9 50.6002 166C48.5002 167.6 46.0002 168.5 43.4002 168.5C39.8002 168.5 36.5002 166.9 34.3002 164.2C32.4002 161.8 31.5002 158.8 31.8002 155.8C32.1002 152.8 33.6002 150.1 36.0002 148.2L14.0002 103.3C13.2002 103.5 12.3002 103.6 11.5002 103.6C7.90017 103.6 4.70017 102 2.40017 99.3C-1.59983 94.4 -0.799827 87.2 4.20017 83.3C6.30017 81.7 8.80017 80.8 11.4002 80.8C12.2002 80.8 13.1002 80.9 13.9002 81.1L36.2002 36.2C35.5002 35.7 34.9002 35.1 34.4002 34.5C32.5002 32.1 31.6002 29.2 32.0002 26.1C32.3002 23.1 33.9002 20.4 36.3002 18.5C38.4002 16.9 40.9002 16 43.5002 16C47.1002 16 50.4002 17.6 52.6002 20.3C53.1002 20.9 53.6002 21.6 53.9002 22.4L103.4 11.3C103.4 7.8 105 4.7 107.7 2.5C109.8 0.9 112.3 0 114.9 0C118.5 0 121.8 1.6 124 4.3C126.8 7.7 127.3 12.3 125.4 16.2L165.1 47.3C167.2 45.7 169.6 44.9 172.2 44.9C175.8 44.9 179.1 46.5 181.3 49.2C185.3 54.1 184.5 61.3 179.5 65.2C178.2 66.3 176.6 67 174.9 67.4V117.2C177.4 117.8 179.7 119.2 181.3 121.2C183.2 123.6 184.1 126.5 183.8 129.6C183.5 132.6 181.9 135.3 179.5 137.2C177.4 138.8 174.9 139.7 172.3 139.7C169.7 139.7 167.2 138.8 165.1 137.3L125.4 168.4C127.7 173.1 126.3 178.9 122.1 182.1C120.1 183.7 117.6 184.5 114.9 184.5Z" fill="#2EA836"/>
</g>
</svg>
