<svg id="Layer_1" data-name="Layer 1" xmlns="http://www.w3.org/2000/svg" xmlns:xlink="http://www.w3.org/1999/xlink" width="781.04" height="781.01" viewBox="0 0 781.04 781.01"><defs><style>.cls-1{fill:url(#linear-gradient);}</style><linearGradient id="linear-gradient" x1="390.52" y1="1" x2="390.52" y2="782.01" gradientTransform="matrix(1, 0, 0, -1, 0, 782)" gradientUnits="userSpaceOnUse"><stop offset="0" stop-color="#ccad26"/><stop offset="0.56" stop-color="#efd136"/><stop offset="0.58" stop-color="#fadc3b"/><stop offset="0.62" stop-color="#eecf35"/><stop offset="1" stop-color="#ccad26"/></linearGradient></defs><path class="cls-1" d="M413,0c6.25.68,12.49,1.39,18.74,2,51.91,5.29,100.89,20.29,146.35,45.8q141.66,79.49,188.15,235.41A357.84,357.84,0,0,1,780,361.06c6.6,96.75-18.09,184.7-76.06,262.44C646.12,701,569.5,750.75,474.94,771.77c-19,4.23-38.71,5.63-58.09,8.36-1.29.18-2.55.58-3.82.87H368c-1.44-.31-2.86-.71-4.32-.9-16.48-2.15-33.19-3.19-49.42-6.55Q162.34,742.05,71.62,615.9C33.45,562.71,10.78,503.22,2.89,438.17,1.84,429.46,1,420.72,0,412V369c.31-1.77.66-3.54.92-5.31C3.8,343.64,5.06,323.2,9.8,303.6c29-120,99.1-208,209-264,38.65-19.68,79.9-31.54,123-36.66,8.71-1,17.44-2,26.16-2.95ZM40.31,390.25c-.14,193.15,156.35,350,349.69,350.4s350.46-156.47,350.69-349.9c.22-193.06-156.44-350-349.69-350.4S40.46,196.9,40.31,390.25ZM614.6,621.68C744,496.84,745.6,290,618.14,162.92,492,37.18,309.89,49.13,205.7,127.54c.77.42,1.46.86,2.2,1.19q55.24,24.35,110.54,48.57a11,11,0,0,0,7.05.06,219.36,219.36,0,0,1,90.88-8.15C465,175,507.62,194.57,543,228.47c50.3,48.2,73.28,107.55,69.85,177.12-.12,2.41-.64,4.8-1,7.52H238.76c.21,2.25.23,4.08.56,5.86,12.52,67.42,69.79,119.8,138,124.68,56.12,4,101.81-16.84,136.46-61.32,2.07-2.67,4.06-3.76,7.4-3.74,22.83.13,45.66.07,68.49.08,1.55,0,3.1.19,5,.31-.53,1.54-.78,2.49-1.18,3.38-46.41,102-161,153.84-267.93,121.34a13.22,13.22,0,0,0-8.42.56c-23.21,10-46.29,20.31-69.42,30.52L205.6,653.32c101.52,76.78,281.4,91.37,409-31.68ZM382.13,237C307.27,240.64,255,297.19,242.72,349.8H538.38C525.25,295,468.3,232.84,382.13,237Z" transform="translate(0 0.01)"/></svg>